<?xml version="1.0" encoding="iso-8859-1"?>
<!-- Uploaded to: SVG Repo, www.svgrepo.com, Generator: SVG Repo Mixer Tools -->
<!DOCTYPE svg PUBLIC "-//W3C//DTD SVG 1.1//EN" "http://www.w3.org/Graphics/SVG/1.1/DTD/svg11.dtd">
<svg height="800px" width="800px" version="1.1" id="Capa_1" xmlns="http://www.w3.org/2000/svg" xmlns:xlink="http://www.w3.org/1999/xlink" 
	 viewBox="0 0 391.916 391.916" xml:space="preserve">
<g>
	<path style="fill:#231F20;" d="M276.789,24.291H115.128v82.669H90.817v35v190.665v35H300.88v-35V141.96v-35h-24.091V24.291z
		 M216.815,198.351l-38.941,38.941l-60.357-60.358V141.96v-3.966h38.941l3.966,3.966L216.815,198.351z M150.128,106.96V59.291
		h91.661v47.669H150.128z"/>
	<circle style="fill:#231F20;" cx="140.233" cy="160.708" r="7.496"/>
	<polygon style="fill:#231F20;" points="335.88,106.96 335.88,141.96 335.88,332.625 335.88,367.625 391.916,367.625 
		391.916,106.96 	"/>
	<polygon style="fill:#231F20;" points="0,367.625 55.817,367.625 55.817,332.625 55.817,141.96 55.817,106.96 0,106.96 	"/>
</g>
</svg>