<?xml version="1.0" encoding="UTF-8"?>
<!DOCTYPE svg PUBLIC "-//W3C//DTD SVG 1.1//EN" "http://www.w3.org/Graphics/SVG/1.1/DTD/svg11.dtd">
<svg xmlns="http://www.w3.org/2000/svg" version="1.1" width="500px" height="500px" style="shape-rendering:geometricPrecision; text-rendering:geometricPrecision; image-rendering:optimizeQuality; fill-rule:evenodd; clip-rule:evenodd" xmlns:xlink="http://www.w3.org/1999/xlink">
<g><path style="opacity:1" fill="#D8A444" d="M 235.5,94.5 C 239.474,95.6209 243.14,97.4543 246.5,100C 285.49,133.474 307.49,175.974 312.5,227.5C 311.189,233.618 308.189,238.785 303.5,243C 280.686,259.576 257.353,275.409 233.5,290.5C 214.899,276.402 196.733,261.736 179,246.5C 174.402,239.369 172.235,231.535 172.5,223C 173.502,200.66 179.002,179.494 189,159.5C 201.565,135.69 217.065,114.023 235.5,94.5 Z"/></g>
<g><path style="opacity:1" fill="#D8A444" d="M 366.5,215.5 C 364.007,217.658 362.34,220.324 361.5,223.5C 351.776,230.77 341.109,232.604 329.5,229C 327.57,226.742 326.07,224.242 325,221.5C 324.333,216.833 324.333,212.167 325,207.5C 326.616,203.325 328.616,199.325 331,195.5C 337.849,187.985 345.349,181.152 353.5,175C 354.448,174.517 355.448,174.351 356.5,174.5C 358.79,183.427 361.957,192.094 366,200.5C 367.523,205.622 367.69,210.622 366.5,215.5 Z"/></g>
<g><path style="opacity:1" fill="#D8A444" d="M 114.5,176.5 C 125.108,178.256 135.442,181.09 145.5,185C 150.427,186.875 154.26,190.042 157,194.5C 158.582,207.222 157.082,219.556 152.5,231.5C 142.481,231.413 132.648,229.747 123,226.5C 118.761,210.065 115.928,193.399 114.5,176.5 Z"/></g>
<g><path style="opacity:0.024" fill="#D8A444" d="M 366.5,215.5 C 365.849,218.803 364.182,221.47 361.5,223.5C 362.34,220.324 364.007,217.658 366.5,215.5 Z"/></g>
<g><path style="opacity:1" fill="#D8A444" d="M 78.5,242.5 C 125.197,241.218 166.864,254.718 203.5,283C 210.542,289.375 216.042,296.875 220,305.5C 220.667,310.5 220.667,315.5 220,320.5C 216.729,329.404 213.063,338.07 209,346.5C 205.729,360.085 202.229,373.585 198.5,387C 195.5,387.667 192.5,387.667 189.5,387C 160.728,378.874 137.228,363.041 119,339.5C 96.7439,310.968 83.2439,278.635 78.5,242.5 Z"/></g>
<g><path style="opacity:1" fill="#D8A444" d="M 342.5,364.5 C 340.973,364.427 339.973,365.094 339.5,366.5C 316.674,387.574 289.674,400.074 258.5,404C 250.813,404.268 243.147,404.768 235.5,405.5C 228.53,404.613 221.53,404.279 214.5,404.5C 218.076,366.726 230.576,332.392 252,301.5C 281.84,264.977 320.507,246.643 368,246.5C 378.563,246.589 389.063,247.422 399.5,249C 399.957,249.414 400.291,249.914 400.5,250.5C 392.245,294.346 372.912,332.346 342.5,364.5 Z"/></g>
<g><path style="opacity:1" fill="#D8A444" d="M 455.5,375.5 C 453.973,375.427 452.973,376.094 452.5,377.5C 411.703,398.303 368.369,407.303 322.5,404.5C 322.351,403.448 322.517,402.448 323,401.5C 342.327,379.84 361.994,358.507 382,337.5C 387.368,326.735 393.701,316.735 401,307.5C 433.283,321.311 465.117,335.977 496.5,351.5C 483.82,361.179 470.153,369.179 455.5,375.5 Z"/></g>
<g><path style="opacity:1" fill="#D8A444" d="M 60.5,318.5 C 69.9375,317.119 78.6042,318.953 86.5,324C 111.719,351.386 138.385,377.22 166.5,401.5C 167.386,402.325 167.719,403.325 167.5,404.5C 107.852,405.556 53.5184,389.389 4.5,356C 3.13983,354.062 3.47316,352.396 5.5,351C 14.0099,345.245 22.3432,339.245 30.5,333C 40.2044,327.313 50.2044,322.48 60.5,318.5 Z"/></g>
<g><path style="opacity:0.004" fill="#D8A444" d="M 342.5,364.5 C 342.027,365.906 341.027,366.573 339.5,366.5C 339.973,365.094 340.973,364.427 342.5,364.5 Z"/></g>
<g><path style="opacity:0.008" fill="#D8A444" d="M 455.5,375.5 C 455.027,376.906 454.027,377.573 452.5,377.5C 452.973,376.094 453.973,375.427 455.5,375.5 Z"/></g>
</svg>
